<svg xmlns="http://www.w3.org/2000/svg" xmlns:xlink="http://www.w3.org/1999/xlink">
	<symbol id="facebook" viewBox="0 0 40 40">
		<path d="M23.7188 21H21.375V28H18.25V21H15.7188V18.0938H18.25V15.9062C18.25 15.0729 18.4062 14.3646 18.7188 13.7812C19.0312 13.1979 19.4688 12.7604 20.0312 12.4688C20.6146 12.1562 21.2812 12 22.0312 12C22.3646 12 22.7188 12.0208 23.0938 12.0625C23.4688 12.0833 23.7604 12.1146 23.9688 12.1562L24.2812 12.1875V14.6562H23.0312C22.4479 14.6562 22.0208 14.8125 21.75 15.125C21.5 15.4167 21.375 15.7812 21.375 16.2188V18.0938H24.1562L23.7188 21Z"/>
	</symbol>
    <symbol id="instagram" viewBox="0 0 40 40">
		<path d="M17.4688 17.4688C18.1771 16.7604 19.0312 16.4062 20.0312 16.4062C21.0312 16.4062 21.875 16.7604 22.5625 17.4688C23.2708 18.1562 23.625 19 23.625 20C23.625 21 23.2708 21.8542 22.5625 22.5625C21.875 23.25 21.0312 23.5938 20.0312 23.5938C19.0312 23.5938 18.1771 23.25 17.4688 22.5625C16.7812 21.8542 16.4375 21 16.4375 20C16.4375 19 16.7812 18.1562 17.4688 17.4688ZM18.375 21.6562C18.8333 22.1146 19.3854 22.3438 20.0312 22.3438C20.6771 22.3438 21.2292 22.1146 21.6875 21.6562C22.1458 21.1979 22.375 20.6458 22.375 20C22.375 19.3542 22.1458 18.8021 21.6875 18.3438C21.2292 17.8854 20.6771 17.6562 20.0312 17.6562C19.3854 17.6562 18.8333 17.8854 18.375 18.3438C17.9167 18.8021 17.6875 19.3542 17.6875 20C17.6875 20.6458 17.9167 21.1979 18.375 21.6562ZM24.3438 15.6875C24.5104 15.8333 24.5938 16.0208 24.5938 16.25C24.5938 16.4792 24.5104 16.6771 24.3438 16.8438C24.1979 17.0104 24.0104 17.0938 23.7812 17.0938C23.5521 17.0938 23.3542 17.0104 23.1875 16.8438C23.0208 16.6771 22.9375 16.4792 22.9375 16.25C22.9375 16.0208 23.0208 15.8333 23.1875 15.6875C23.3542 15.5208 23.5521 15.4375 23.7812 15.4375C24.0104 15.4375 24.1979 15.5208 24.3438 15.6875ZM27 17.125C27.0208 17.6875 27.0312 18.6458 27.0312 20C27.0312 21.3542 27.0208 22.3125 27 22.875C26.9375 24.1458 26.5521 25.1354 25.8438 25.8438C25.1562 26.5312 24.1771 26.8958 22.9062 26.9375C22.3438 26.9792 21.3854 27 20.0312 27C18.6771 27 17.7188 26.9792 17.1562 26.9375C15.8854 26.875 14.9062 26.5 14.2188 25.8125C13.9479 25.5625 13.7292 25.2708 13.5625 24.9375C13.3958 24.6042 13.2708 24.2812 13.1875 23.9688C13.125 23.6562 13.0938 23.2917 13.0938 22.875C13.0521 22.3125 13.0312 21.3542 13.0312 20C13.0312 18.6458 13.0521 17.6771 13.0938 17.0938C13.1562 15.8438 13.5312 14.875 14.2188 14.1875C14.9062 13.4792 15.8854 13.0938 17.1562 13.0312C17.7188 13.0104 18.6771 13 20.0312 13C21.3854 13 22.3438 13.0104 22.9062 13.0312C24.1771 13.0938 25.1562 13.4792 25.8438 14.1875C26.5521 14.875 26.9375 15.8542 27 17.125ZM25.5 24.125C25.5625 23.9583 25.6146 23.75 25.6562 23.5C25.6979 23.2292 25.7292 22.9167 25.75 22.5625C25.7708 22.1875 25.7812 21.8854 25.7812 21.6562C25.7812 21.4271 25.7812 21.1042 25.7812 20.6875C25.7812 20.2708 25.7812 20.0417 25.7812 20C25.7812 19.9375 25.7812 19.7083 25.7812 19.3125C25.7812 18.8958 25.7812 18.5729 25.7812 18.3438C25.7812 18.1146 25.7708 17.8229 25.75 17.4688C25.7292 17.0938 25.6979 16.7812 25.6562 16.5312C25.6146 16.2604 25.5625 16.0417 25.5 15.875C25.25 15.2292 24.8021 14.7812 24.1562 14.5312C23.9896 14.4688 23.7708 14.4167 23.5 14.375C23.25 14.3333 22.9375 14.3021 22.5625 14.2812C22.2083 14.2604 21.9167 14.25 21.6875 14.25C21.4792 14.25 21.1562 14.25 20.7188 14.25C20.3021 14.25 20.0729 14.25 20.0312 14.25C19.9896 14.25 19.7604 14.25 19.3438 14.25C18.9271 14.25 18.6042 14.25 18.375 14.25C18.1458 14.25 17.8438 14.2604 17.4688 14.2812C17.1146 14.3021 16.8021 14.3333 16.5312 14.375C16.2812 14.4167 16.0729 14.4688 15.9062 14.5312C15.2604 14.7812 14.8125 15.2292 14.5625 15.875C14.5 16.0417 14.4479 16.2604 14.4062 16.5312C14.3646 16.7812 14.3333 17.0938 14.3125 17.4688C14.2917 17.8229 14.2812 18.1146 14.2812 18.3438C14.2812 18.5521 14.2812 18.875 14.2812 19.3125C14.2812 19.7292 14.2812 19.9583 14.2812 20C14.2812 20.0833 14.2812 20.2812 14.2812 20.5938C14.2812 20.8854 14.2812 21.1354 14.2812 21.3438C14.2812 21.5312 14.2812 21.7812 14.2812 22.0938C14.3021 22.4062 14.3229 22.6771 14.3438 22.9062C14.3646 23.1146 14.3958 23.3333 14.4375 23.5625C14.4792 23.7917 14.5208 23.9792 14.5625 24.125C14.8333 24.7708 15.2812 25.2188 15.9062 25.4688C16.0729 25.5312 16.2812 25.5833 16.5312 25.625C16.8021 25.6667 17.1146 25.6979 17.4688 25.7188C17.8438 25.7396 18.1354 25.75 18.3438 25.75C18.5729 25.75 18.8958 25.75 19.3125 25.75C19.75 25.75 19.9896 25.75 20.0312 25.75C20.0938 25.75 20.3229 25.75 20.7188 25.75C21.1354 25.75 21.4583 25.75 21.6875 25.75C21.9167 25.75 22.2083 25.7396 22.5625 25.7188C22.9375 25.6979 23.25 25.6667 23.5 25.625C23.7708 25.5833 23.9896 25.5312 24.1562 25.4688C24.8021 25.1979 25.25 24.75 25.5 24.125Z"/>
	</symbol>
    <symbol id="twitter" viewBox="0 0 40 40">
		<path d="M26.3438 16.75C26.3646 16.8333 26.375 16.9688 26.375 17.1562C26.375 18.2604 26.1667 19.3646 25.75 20.4688C25.3333 21.5521 24.7396 22.5521 23.9688 23.4688C23.2188 24.3646 22.2396 25.0938 21.0312 25.6562C19.8229 26.2188 18.4896 26.5 17.0312 26.5C15.1979 26.5 13.5208 26.0104 12 25.0312C12.2292 25.0521 12.4896 25.0625 12.7812 25.0625C14.3021 25.0625 15.6667 24.5938 16.875 23.6562C16.1458 23.6562 15.5 23.4479 14.9375 23.0312C14.3958 22.5938 14.0208 22.0521 13.8125 21.4062C14.0208 21.4271 14.2188 21.4375 14.4062 21.4375C14.6979 21.4375 14.9896 21.4062 15.2812 21.3438C14.7812 21.2396 14.3333 21.0312 13.9375 20.7188C13.5417 20.4062 13.2292 20.0312 13 19.5938C12.7708 19.1354 12.6562 18.6458 12.6562 18.125V18.0625C13.1146 18.3333 13.6042 18.4792 14.125 18.5C13.1458 17.8333 12.6562 16.9167 12.6562 15.75C12.6562 15.1667 12.8125 14.6146 13.125 14.0938C13.9375 15.1146 14.9271 15.9271 16.0938 16.5312C17.2812 17.1354 18.5417 17.4688 19.875 17.5312C19.8333 17.2812 19.8125 17.0312 19.8125 16.7812C19.8125 15.8854 20.125 15.1146 20.75 14.4688C21.3958 13.8229 22.1667 13.5 23.0625 13.5C24.0208 13.5 24.8229 13.8438 25.4688 14.5312C26.2188 14.3854 26.9167 14.125 27.5625 13.75C27.3125 14.5208 26.8333 15.125 26.125 15.5625C26.75 15.4792 27.375 15.3021 28 15.0312C27.5417 15.6979 26.9896 16.2708 26.3438 16.75Z"/>
	</symbol>
	<symbol id="location" viewBox="0 0 24 24">
      <path d="M6335 12360 c-516 -49 -1002 -220 -1425 -502 -175 -116 -281 -200
-419 -333 -193 -185 -350 -375 -478 -579 -474 -754 -590 -1678 -313 -2516 26
-80 241 -676 478 -1325 1892 -5186 2434 -6670 2436 -6672 2 -2 204 547 449
1219 245 673 890 2440 1433 3928 542 1488 1004 2757 1026 2820 328 963 133
2036 -516 2840 -100 125 -313 336 -446 443 -441 355 -936 572 -1505 658 -157
23 -560 34 -720 19z m498 -1415 c381 -67 721 -314 901 -654 158 -301 190 -666
85 -986 -153 -465 -564 -804 -1051 -865 -295 -37 -607 38 -861 207 -95 63
-249 213 -320 310 -238 331 -301 753 -172 1140 65 195 159 347 305 493 184
185 418 308 673 355 102 18 333 18 440 0z"/>
    </symbol>

    <symbol id="phone" viewBox="0 0 24 24">
      <path d="M20 15.5c-1.25 0-2.45-.2-3.57-.57a.81.81 0 0 0-1.12.12l-3.3 3.3c-1.31-.83-2.7-1.87-4.1-3.3l3.3-3.3a.81.81 0 0 0 .12-1.12C6.7 8.95 6.5 7.75 6.5 6.5c0-1.66 1.34-3 3-3h1c.55 0 1 .45 1 1v3c0 .55.45 1 1 1 1h3c.55 0 1-.45 1-1v-1c0-1.66-1.34-3-3-3S9 4.84 9 6.5 10.34 9.5 12 9.5s3-1.34 3-3c0-.55-.45-1-1-1h-3c-.55 0-1-.45-1-1v-3c0-.55.45-1 1-1h1c1.66 0 3 1.34 3 3 0 1.25-.2 2.45-.57 3.57a.81.81 0 0 0 1.12.12C19.8 13.05 20 14.25 20 15.5z"/>
    </symbol>

    <symbol id="inbox" viewBox="0 0 24 24">
      <path d="M567.938 243.908L462.25 85.374A48.003 48.003 0 0 0 422.311 64H153.689a48 48 0 0 0-39.938 21.374L8.062 243.908A47.994 47.994 0 0 0 0 270.533V400c0 26.51 21.49 48 48 48h480c26.51 0 48-21.49 48-48V270.533a47.994 47.994 0 0 0-8.062-26.625zM162.252 128h251.497l85.333 128H376l-32 64H232l-32-64H76.918l85.334-128z"/>
    </symbol>

    <symbol id="time" viewBox="0 0 24 24">
      <path d="M71.224,0C31.951,0,0,31.951,0,71.224s31.951,71.224,71.224,71.224s71.224-31.951,71.224-71.224
		S110.496,0,71.224,0z M71.224,127.447C40.222,127.447,15,102.226,15,71.224S40.222,15,71.224,15s56.224,25.222,56.224,56.224
		S102.226,127.447,71.224,127.447z"/>
	<path d="M100.923,72.016H71.724V46.724c0-4.143-3.357-7.5-7.5-7.5s-7.5,3.357-7.5,7.5v32.792
		c0,4.143,3.357,7.5,7.5,7.5h36.699c4.143,0,7.5-3.357,7.5-7.5S105.065,72.016,100.923,72.016z"/>
    </symbol>
</svg>